<svg width="256" height="256" viewBox="0 0 256 256" fill="none" xmlns="http://www.w3.org/2000/svg">
<path fill-rule="evenodd" clip-rule="evenodd" d="M116.169 0.245879C108.731 1.02688 92.373 4.77988 85.25 7.33888C48.894 20.4019 19.574 49.6949 7.389 85.1299C3.497 96.4489 2.014 102.382 0.825 111.38L0 117.63H32.71H65.419L66.061 114.42C66.414 112.655 68.373 107.817 70.414 103.67C75.84 92.6439 87.304 81.3179 98.669 75.7549C113.169 68.6559 128.428 67.0819 143.669 71.1099C163.768 76.4229 181.841 93.7669 187.713 113.38L188.986 117.63H222.327C240.665 117.63 255.668 117.292 255.666 116.88C255.664 116.468 254.958 112.1 254.096 107.175C250.887 88.8279 243.765 71.1269 233.36 55.6379C227.38 46.7369 210.809 29.9199 201.669 23.4759C188.041 13.8699 167.633 5.21788 151.285 2.11688C143.023 0.548879 123.292 -0.501121 116.169 0.245879ZM115.932 85.0789C93.87 90.1029 77.669 109.592 77.669 131.107C77.669 143.852 82.324 155.241 91.132 164.049C101.076 173.994 112.535 178.63 127.169 178.63C141.773 178.63 153.49 173.834 163.343 163.822C175.754 151.211 179.871 131.846 173.658 115.306C165.396 93.3129 139.444 79.7239 115.932 85.0789ZM1.222 147.366C5.759 173.675 16.903 196.202 34.646 214.932C73.905 256.372 132.809 267.102 184.169 242.167C218.83 225.339 243.172 194.43 252.713 155.13C253.781 150.73 254.658 146.336 254.662 145.366C254.669 143.712 252.647 143.619 222.056 143.866L189.443 144.13L187.733 149.658C181.97 168.286 166.378 184.255 147.669 190.69C143.055 192.277 137.958 193.062 130.107 193.396C110.263 194.241 95.766 188.746 82.207 175.241C74.679 167.742 68.408 157.342 66.204 148.698L65.039 144.13L32.806 143.866L0.573 143.602L1.222 147.366Z" fill="#D1D3D7"/>
</svg>
